<svg xmlns="http://www.w3.org/2000/svg" viewBox="0 0 150 150" width="150" height="150">
  <path d="M75 0C33.6 0 0 33.6 0 75s33.6 75 75 75 75-33.6 75-75S116.4 0 75 0zm0 149c-40.9 0-74-33.1-74-74S34.1 1 75 1s74 33.1 74 74-33.1 74-74 74z"></path>
  <path d="M14 28v122h122V28H14zm121 121H15V29h120v120z"></path>
  <text x="20" y="82" font-family="Arial, Helvetica Neue, Helvetica, sans-serif" font-size="19">ISOMORPHIC</text>
  <text x="20" y="101" font-family="Arial, Helvetica Neue, Helvetica, sans-serif" font-size="19">STYLE</text>
  <text x="20" y="120" font-family="Arial, Helvetica Neue, Helvetica, sans-serif" font-size="19">LOADER</text>
</svg>
